# Exported from Wings 3D 2.4.1
mtllib pole.mtl
o Cube1
#32 vertices, 30 faces
v -9.9014754e-2 0.0000000e+0 -9.9014754e-2
v -9.9014754e-2 0.0000000e+0 9.9014754e-2
v -9.9014754e-2 3.96059017 -9.9014754e-2
v -9.9014754e-2 3.96059017 9.9014754e-2
v 9.9014754e-2 0.0000000e+0 -9.9014754e-2
v 9.9014754e-2 0.0000000e+0 9.9014754e-2
v 9.9014754e-2 3.96059017 -9.9014754e-2
v 9.9014754e-2 3.96059017 9.9014754e-2
v 9.9014754e-2 3.77522161 9.9014754e-2
v 9.9014754e-2 3.77522161 -9.9014754e-2
v -9.9014754e-2 3.77522161 9.9014754e-2
v -9.9014754e-2 3.77522161 -9.9014754e-2
v -0.17392947 3.96059017 -0.17392947
v -0.17392947 3.96059017 0.17392947
v 0.17392947 3.96059017 -0.17392947
v 0.17392947 3.96059017 0.17392947
v 0.17392947 3.77522161 0.17392947
v 0.17392947 3.77522161 -0.17392947
v -0.17392947 3.77522161 0.17392947
v -0.17392947 3.77522161 -0.17392947
v 0.75961066 3.96059017 0.17392947
v 0.75961066 3.77522161 0.17392947
v 0.75961066 3.77522161 -0.17392947
v 0.75961066 3.96059017 -0.17392947
v 0.69838748 3.77522161 -0.11270630
v 0.69838748 3.77522161 0.11270630
v 0.23515264 3.77522161 0.11270630
v 0.23515264 3.77522161 -0.11270630
v 0.69838748 3.68293245 -0.11270630
v 0.69838748 3.68293245 0.11270630
v 0.23515264 3.68293245 0.11270630
v 0.23515264 3.68293245 -0.11270630
vn -0.57735027 -0.57735027 -0.57735027
vn -0.57735027 -0.57735027 0.57735027
vn 0.0000000e+0 1.00000000 0.0000000e+0
vn 0.0000000e+0 1.00000000 0.0000000e+0
vn 0.57735027 -0.57735027 -0.57735027
vn 0.57735027 -0.57735027 0.57735027
vn 0.0000000e+0 1.00000000 0.0000000e+0
vn 0.0000000e+0 1.00000000 0.0000000e+0
vn 0.40824829 -0.81649658 0.40824829
vn 0.40824829 -0.81649658 -0.40824829
vn -0.40824829 -0.81649658 0.40824829
vn -0.40824829 -0.81649658 -0.40824829
vn -0.40824829 0.81649658 -0.40824829
vn -0.40824829 0.81649658 0.40824829
vn 0.0000000e+0 0.83205029 -0.55470020
vn 0.0000000e+0 0.83205029 0.55470020
vn 0.0000000e+0 -0.89442719 0.44721360
vn 0.0000000e+0 -0.89442719 -0.44721360
vn -0.40824829 -0.81649658 0.40824829
vn -0.40824829 -0.81649658 -0.40824829
vn 0.57735027 0.57735027 0.57735027
vn 0.40824829 -0.81649658 0.40824829
vn 0.40824829 -0.81649658 -0.40824829
vn 0.57735027 0.57735027 -0.57735027
vn 0.40824829 -0.81649658 -0.40824829
vn 0.40824829 -0.81649658 0.40824829
vn -0.40824829 -0.81649658 0.40824829
vn -0.40824829 -0.81649658 -0.40824829
vn 0.57735027 -0.57735027 -0.57735027
vn 0.57735027 -0.57735027 0.57735027
vn -0.57735027 -0.57735027 0.57735027
vn -0.57735027 -0.57735027 -0.57735027
g Cube1_default
usemtl default
s 1
f 1//1 5//5 6//6 2//2
f 2//2 6//6 9//9 11//11
f 2//2 11//11 12//12 1//1
f 3//3 13//13 14//14 4//4
f 4//4 8//8 7//7 3//3
f 4//4 14//14 16//16 8//8
f 5//5 10//10 9//9 6//6
f 7//7 15//15 13//13 3//3
f 8//8 16//16 15//15 7//7
f 9//9 10//10 18//18 17//17
f 10//10 12//12 20//20 18//18
f 12//12 10//10 5//5 1//1
f 14//14 13//13 20//20 19//19
f 15//15 24//24 23//23 18//18
f 16//16 14//14 19//19 17//17
f 16//16 21//21 24//24 15//15
f 17//17 19//19 11//11 9//9
f 17//17 22//22 21//21 16//16
f 17//17 27//27 26//26 22//22
f 18//18 20//20 13//13 15//15
f 18//18 28//28 27//27 17//17
f 19//19 20//20 12//12 11//11
f 22//22 23//23 24//24 21//21
f 22//22 26//26 25//25 23//23
f 23//23 25//25 28//28 18//18
f 25//25 29//29 32//32 28//28
f 26//26 30//30 29//29 25//25
f 27//27 31//31 30//30 26//26
f 28//28 32//32 31//31 27//27
f 30//30 31//31 32//32 29//29
